<svg xmlns="http://www.w3.org/2000/svg" width="512" height="512" fill="none" viewBox="0 0 512 512"><rect width="512" height="512" fill="#4568DC" rx="80"/><rect width="64" height="96" x="96" y="352" fill="#fff" rx="8"/><rect width="64" height="192" x="192" y="256" fill="#fff" rx="8"/><rect width="64" height="288" x="288" y="160" fill="#fff" rx="8"/><rect width="64" height="384" x="384" y="64" fill="#fff" rx="8"/><path fill="#B06AB3" fill-opacity=".6" d="M96 144C96 136.268 102.268 130 110 130H434C441.732 130 448 136.268 448 144V144C448 151.732 441.732 158 434 158H110C102.268 158 96 151.732 96 144V144Z"/><path fill="#B06AB3" fill-opacity=".6" d="M96 96C96 88.268 102.268 82 110 82H338C345.732 82 352 88.268 352 96V96C352 103.732 345.732 110 338 110H110C102.268 110 96 103.732 96 96V96Z"/><circle cx="448" cy="96" r="16" fill="#fff"/><circle cx="352" cy="144" r="16" fill="#fff"/></svg>